<?xml version="1.0" encoding="utf-8" standalone="no"?>
<!DOCTYPE svg PUBLIC "-//W3C//DTD SVG 1.1//EN"
  "http://www.w3.org/Graphics/SVG/1.1/DTD/svg11.dtd">
<svg xmlns:xlink="http://www.w3.org/1999/xlink" width="720pt" height="720pt" viewBox="0 0 720 720" xmlns="http://www.w3.org/2000/svg" version="1.1">
 <metadata>
  <rdf:RDF xmlns:dc="http://purl.org/dc/elements/1.1/" xmlns:cc="http://creativecommons.org/ns#" xmlns:rdf="http://www.w3.org/1999/02/22-rdf-syntax-ns#">
   <cc:Work>
    <dc:type rdf:resource="http://purl.org/dc/dcmitype/StillImage"/>
    <dc:date>2025-03-10T21:21:48.712535</dc:date>
    <dc:format>image/svg+xml</dc:format>
    <dc:creator>
     <cc:Agent>
      <dc:title>Matplotlib v3.9.2, https://matplotlib.org/</dc:title>
     </cc:Agent>
    </dc:creator>
   </cc:Work>
  </rdf:RDF>
 </metadata>
 <defs>
  <style type="text/css">*{stroke-linejoin: round; stroke-linecap: butt}</style>
 </defs>
 <g id="figure_1">
  <g id="patch_1">
   <path d="M 0 720 
L 720 720 
L 720 0 
L 0 0 
z
" style="fill: #ffffff"/>
  </g>
  <g id="axes_1">
   <g id="patch_2">
    <path d="M 121.274233 530.820608 
C 130.033653 530.820608 138.43549 527.340453 144.629335 521.146608 
C 150.82318 514.952762 154.303335 506.550926 154.303335 497.791506 
C 154.303335 489.032086 150.82318 480.63025 144.629335 474.436404 
C 138.43549 468.242559 130.033653 464.762404 121.274233 464.762404 
C 112.514813 464.762404 104.112977 468.242559 97.919132 474.436404 
C 91.725286 480.63025 88.245132 489.032086 88.245132 497.791506 
C 88.245132 506.550926 91.725286 514.952762 97.919132 521.146608 
C 104.112977 527.340453 112.514813 530.820608 121.274233 530.820608 
z
" clip-path="url(#p9b1f125395)" style="fill: #fabebe; opacity: 0.7; stroke: #fabebe; stroke-width: 1.2; stroke-linejoin: miter"/>
   </g>
   <g id="patch_3">
    <path d="M 110.145771 445.034385 
C 119.546954 445.034385 128.564355 441.299255 135.211995 434.651615 
C 141.859635 428.003975 145.594765 418.986574 145.594765 409.585391 
C 145.594765 400.184208 141.859635 391.166808 135.211995 384.519167 
C 128.564355 377.871527 119.546954 374.136397 110.145771 374.136397 
C 100.744588 374.136397 91.727187 377.871527 85.079547 384.519167 
C 78.431907 391.166808 74.696777 400.184208 74.696777 409.585391 
C 74.696777 418.986574 78.431907 428.003975 85.079547 434.651615 
C 91.727187 441.299255 100.744588 445.034385 110.145771 445.034385 
z
" clip-path="url(#p9b1f125395)" style="fill: #f032e6; opacity: 0.7; stroke: #f032e6; stroke-width: 1.2; stroke-linejoin: miter"/>
   </g>
   <g id="patch_4">
    <path d="M 169.921052 484.805288 
C 179.475943 484.805288 188.640777 481.009089 195.397105 474.252761 
C 202.153433 467.496433 205.949632 458.331599 205.949632 448.776708 
C 205.949632 439.221817 202.153433 430.056983 195.397105 423.300655 
C 188.640777 416.544327 179.475943 412.748128 169.921052 412.748128 
C 160.366161 412.748128 151.201327 416.544327 144.444999 423.300655 
C 137.68867 430.056983 133.892472 439.221817 133.892472 448.776708 
C 133.892472 458.331599 137.68867 467.496433 144.444999 474.252761 
C 151.201327 481.009089 160.366161 484.805288 169.921052 484.805288 
z
" clip-path="url(#p9b1f125395)" style="fill: #d2f53c; opacity: 0.7; stroke: #d2f53c; stroke-width: 1.2; stroke-linejoin: miter"/>
   </g>
   <g id="patch_5">
    <path d="M 144.214302 381.28568 
C 157.288593 381.28568 169.829155 376.091209 179.074075 366.846289 
C 188.318995 357.60137 193.513466 345.060808 193.513466 331.986517 
C 193.513466 318.912226 188.318995 306.371664 179.074075 297.126744 
C 169.829155 287.881824 157.288593 282.687353 144.214302 282.687353 
C 131.140011 282.687353 118.599449 287.881824 109.354529 297.126744 
C 100.10961 306.371664 94.915139 318.912226 94.915139 331.986517 
C 94.915139 345.060808 100.10961 357.60137 109.354529 366.846289 
C 118.599449 376.091209 131.140011 381.28568 144.214302 381.28568 
z
" clip-path="url(#p9b1f125395)" style="fill: #46f0f0; opacity: 0.7; stroke: #46f0f0; stroke-width: 1.2; stroke-linejoin: miter"/>
   </g>
   <g id="patch_6">
    <path d="M 222.317597 640.597185 
C 244.573587 640.597185 265.921024 631.754786 281.658385 616.017426 
C 297.395746 600.280065 306.238144 578.932627 306.238144 556.676638 
C 306.238144 534.420649 297.395746 513.073211 281.658385 497.33585 
C 265.921024 481.59849 244.573587 472.756091 222.317597 472.756091 
C 200.061608 472.756091 178.714171 481.59849 162.97681 497.33585 
C 147.239449 513.073211 138.397051 534.420649 138.397051 556.676638 
C 138.397051 578.932627 147.239449 600.280065 162.97681 616.017426 
C 178.714171 631.754786 200.061608 640.597185 222.317597 640.597185 
z
" clip-path="url(#p9b1f125395)" style="fill: #911eb4; opacity: 0.7; stroke: #911eb4; stroke-width: 1.2; stroke-linejoin: miter"/>
   </g>
   <g id="patch_7">
    <path d="M 196.281443 292.480504 
C 221.213137 292.480504 245.127051 282.575037 262.756421 264.945666 
C 280.385791 247.316296 290.291259 223.402383 290.291259 198.470688 
C 290.291259 173.538993 280.385791 149.62508 262.756421 131.99571 
C 245.127051 114.366339 221.213137 104.460872 196.281443 104.460872 
C 171.349748 104.460872 147.435834 114.366339 129.806464 131.99571 
C 112.177094 149.62508 102.271626 173.538993 102.271626 198.470688 
C 102.271626 223.402383 112.177094 247.316296 129.806464 264.945666 
C 147.435834 282.575037 171.349748 292.480504 196.281443 292.480504 
z
" clip-path="url(#p9b1f125395)" style="fill: #0082c8; opacity: 0.7; stroke: #0082c8; stroke-width: 1.2; stroke-linejoin: miter"/>
   </g>
   <g id="patch_8">
    <path d="M 400.905125 650.604876 
C 426.011508 650.604876 450.092979 640.630005 467.845874 622.87711 
C 485.598768 605.124216 495.57364 581.042745 495.57364 555.936362 
C 495.57364 530.829978 485.598768 506.748507 467.845874 488.995613 
C 450.092979 471.242719 426.011508 461.267847 400.905125 461.267847 
C 375.798741 461.267847 351.71727 471.242719 333.964376 488.995613 
C 316.211482 506.748507 306.23661 530.829978 306.23661 555.936362 
C 306.23661 581.042745 316.211482 605.124216 333.964376 622.87711 
C 351.71727 640.630005 375.798741 650.604876 400.905125 650.604876 
z
" clip-path="url(#p9b1f125395)" style="fill: #f58231; opacity: 0.7; stroke: #f58231; stroke-width: 1.2; stroke-linejoin: miter"/>
   </g>
   <g id="patch_9">
    <path d="M 399.371833 289.263302 
C 428.540317 289.263302 456.518063 277.67454 477.143296 257.049307 
C 497.76853 236.424073 509.357291 208.446328 509.357291 179.277843 
C 509.357291 150.109359 497.76853 122.131613 477.143296 101.50638 
C 456.518063 80.881147 428.540317 69.292385 399.371833 69.292385 
C 370.203348 69.292385 342.225603 80.881147 321.60037 101.50638 
C 300.975136 122.131613 289.386375 150.109359 289.386375 179.277843 
C 289.386375 208.446328 300.975136 236.424073 321.60037 257.049307 
C 342.225603 277.67454 370.203348 289.263302 399.371833 289.263302 
z
" clip-path="url(#p9b1f125395)" style="fill: #ffe119; opacity: 0.7; stroke: #ffe119; stroke-width: 1.2; stroke-linejoin: miter"/>
   </g>
   <g id="patch_10">
    <path d="M 298.776121 488.325098 
C 328.374306 488.325098 356.764211 476.565615 377.693288 455.636537 
C 398.622366 434.70746 410.381849 406.317555 410.381849 376.71937 
C 410.381849 347.121185 398.622366 318.731281 377.693288 297.802203 
C 356.764211 276.873126 328.374306 265.113642 298.776121 265.113642 
C 269.177936 265.113642 240.788032 276.873126 219.858954 297.802203 
C 198.929877 318.731281 187.170393 347.121185 187.170393 376.71937 
C 187.170393 406.317555 198.929877 434.70746 219.858954 455.636537 
C 240.788032 476.565615 269.177936 488.325098 298.776121 488.325098 
z
" clip-path="url(#p9b1f125395)" style="fill: #3cb44b; opacity: 0.7; stroke: #3cb44b; stroke-width: 1.2; stroke-linejoin: miter"/>
   </g>
   <g id="patch_11">
    <path d="M 546.817593 513.155114 
C 583.000775 513.155114 617.706859 498.779383 643.292232 473.19401 
C 668.877606 447.608636 683.253336 412.902553 683.253336 376.71937 
C 683.253336 340.536188 668.877606 305.830104 643.292232 280.244731 
C 617.706859 254.659357 583.000775 240.283627 546.817593 240.283627 
C 510.634411 240.283627 475.928327 254.659357 450.342953 280.244731 
C 424.75758 305.830104 410.381849 340.536188 410.381849 376.71937 
C 410.381849 412.902553 424.75758 447.608636 450.342953 473.19401 
C 475.928327 498.779383 510.634411 513.155114 546.817593 513.155114 
z
" clip-path="url(#p9b1f125395)" style="fill: #e6194b; opacity: 0.7; stroke: #e6194b; stroke-width: 1.2; stroke-linejoin: miter"/>
   </g>
   <g id="text_1">
    <!-- vietnamese bolero -->
    <g transform="translate(68.856265 494.951975) scale(0.1 -0.1)">
     <defs>
      <path id="DejaVuSans-Bold-76" d="M 97 3500 
L 1216 3500 
L 2088 1081 
L 2956 3500 
L 4078 3500 
L 2700 0 
L 1472 0 
L 97 3500 
z
" transform="scale(0.015625)"/>
      <path id="DejaVuSans-Bold-69" d="M 538 3500 
L 1656 3500 
L 1656 0 
L 538 0 
L 538 3500 
z
M 538 4863 
L 1656 4863 
L 1656 3950 
L 538 3950 
L 538 4863 
z
" transform="scale(0.015625)"/>
      <path id="DejaVuSans-Bold-65" d="M 4031 1759 
L 4031 1441 
L 1416 1441 
Q 1456 1047 1700 850 
Q 1944 653 2381 653 
Q 2734 653 3104 758 
Q 3475 863 3866 1075 
L 3866 213 
Q 3469 63 3072 -14 
Q 2675 -91 2278 -91 
Q 1328 -91 801 392 
Q 275 875 275 1747 
Q 275 2603 792 3093 
Q 1309 3584 2216 3584 
Q 3041 3584 3536 3087 
Q 4031 2591 4031 1759 
z
M 2881 2131 
Q 2881 2450 2695 2645 
Q 2509 2841 2209 2841 
Q 1884 2841 1681 2658 
Q 1478 2475 1428 2131 
L 2881 2131 
z
" transform="scale(0.015625)"/>
      <path id="DejaVuSans-Bold-74" d="M 1759 4494 
L 1759 3500 
L 2913 3500 
L 2913 2700 
L 1759 2700 
L 1759 1216 
Q 1759 972 1856 886 
Q 1953 800 2241 800 
L 2816 800 
L 2816 0 
L 1856 0 
Q 1194 0 917 276 
Q 641 553 641 1216 
L 641 2700 
L 84 2700 
L 84 3500 
L 641 3500 
L 641 4494 
L 1759 4494 
z
" transform="scale(0.015625)"/>
      <path id="DejaVuSans-Bold-6e" d="M 4056 2131 
L 4056 0 
L 2931 0 
L 2931 347 
L 2931 1631 
Q 2931 2084 2911 2256 
Q 2891 2428 2841 2509 
Q 2775 2619 2662 2680 
Q 2550 2741 2406 2741 
Q 2056 2741 1856 2470 
Q 1656 2200 1656 1722 
L 1656 0 
L 538 0 
L 538 3500 
L 1656 3500 
L 1656 2988 
Q 1909 3294 2193 3439 
Q 2478 3584 2822 3584 
Q 3428 3584 3742 3212 
Q 4056 2841 4056 2131 
z
" transform="scale(0.015625)"/>
      <path id="DejaVuSans-Bold-61" d="M 2106 1575 
Q 1756 1575 1579 1456 
Q 1403 1338 1403 1106 
Q 1403 894 1545 773 
Q 1688 653 1941 653 
Q 2256 653 2472 879 
Q 2688 1106 2688 1447 
L 2688 1575 
L 2106 1575 
z
M 3816 1997 
L 3816 0 
L 2688 0 
L 2688 519 
Q 2463 200 2181 54 
Q 1900 -91 1497 -91 
Q 953 -91 614 226 
Q 275 544 275 1050 
Q 275 1666 698 1953 
Q 1122 2241 2028 2241 
L 2688 2241 
L 2688 2328 
Q 2688 2594 2478 2717 
Q 2269 2841 1825 2841 
Q 1466 2841 1156 2769 
Q 847 2697 581 2553 
L 581 3406 
Q 941 3494 1303 3539 
Q 1666 3584 2028 3584 
Q 2975 3584 3395 3211 
Q 3816 2838 3816 1997 
z
" transform="scale(0.015625)"/>
      <path id="DejaVuSans-Bold-6d" d="M 3781 2919 
Q 3994 3244 4286 3414 
Q 4578 3584 4928 3584 
Q 5531 3584 5847 3212 
Q 6163 2841 6163 2131 
L 6163 0 
L 5038 0 
L 5038 1825 
Q 5041 1866 5042 1909 
Q 5044 1953 5044 2034 
Q 5044 2406 4934 2573 
Q 4825 2741 4581 2741 
Q 4263 2741 4089 2478 
Q 3916 2216 3909 1719 
L 3909 0 
L 2784 0 
L 2784 1825 
Q 2784 2406 2684 2573 
Q 2584 2741 2328 2741 
Q 2006 2741 1831 2477 
Q 1656 2213 1656 1722 
L 1656 0 
L 531 0 
L 531 3500 
L 1656 3500 
L 1656 2988 
Q 1863 3284 2130 3434 
Q 2397 3584 2719 3584 
Q 3081 3584 3359 3409 
Q 3638 3234 3781 2919 
z
" transform="scale(0.015625)"/>
      <path id="DejaVuSans-Bold-73" d="M 3272 3391 
L 3272 2541 
Q 2913 2691 2578 2766 
Q 2244 2841 1947 2841 
Q 1628 2841 1473 2761 
Q 1319 2681 1319 2516 
Q 1319 2381 1436 2309 
Q 1553 2238 1856 2203 
L 2053 2175 
Q 2913 2066 3209 1816 
Q 3506 1566 3506 1031 
Q 3506 472 3093 190 
Q 2681 -91 1863 -91 
Q 1516 -91 1145 -36 
Q 775 19 384 128 
L 384 978 
Q 719 816 1070 734 
Q 1422 653 1784 653 
Q 2113 653 2278 743 
Q 2444 834 2444 1013 
Q 2444 1163 2330 1236 
Q 2216 1309 1875 1350 
L 1678 1375 
Q 931 1469 631 1722 
Q 331 1975 331 2491 
Q 331 3047 712 3315 
Q 1094 3584 1881 3584 
Q 2191 3584 2531 3537 
Q 2872 3491 3272 3391 
z
" transform="scale(0.015625)"/>
      <path id="DejaVuSans-Bold-20" transform="scale(0.015625)"/>
      <path id="DejaVuSans-Bold-62" d="M 2400 722 
Q 2759 722 2948 984 
Q 3138 1247 3138 1747 
Q 3138 2247 2948 2509 
Q 2759 2772 2400 2772 
Q 2041 2772 1848 2508 
Q 1656 2244 1656 1747 
Q 1656 1250 1848 986 
Q 2041 722 2400 722 
z
M 1656 2988 
Q 1888 3294 2169 3439 
Q 2450 3584 2816 3584 
Q 3463 3584 3878 3070 
Q 4294 2556 4294 1747 
Q 4294 938 3878 423 
Q 3463 -91 2816 -91 
Q 2450 -91 2169 54 
Q 1888 200 1656 506 
L 1656 0 
L 538 0 
L 538 4863 
L 1656 4863 
L 1656 2988 
z
" transform="scale(0.015625)"/>
      <path id="DejaVuSans-Bold-6f" d="M 2203 2784 
Q 1831 2784 1636 2517 
Q 1441 2250 1441 1747 
Q 1441 1244 1636 976 
Q 1831 709 2203 709 
Q 2569 709 2762 976 
Q 2956 1244 2956 1747 
Q 2956 2250 2762 2517 
Q 2569 2784 2203 2784 
z
M 2203 3584 
Q 3106 3584 3614 3096 
Q 4122 2609 4122 1747 
Q 4122 884 3614 396 
Q 3106 -91 2203 -91 
Q 1297 -91 786 396 
Q 275 884 275 1747 
Q 275 2609 786 3096 
Q 1297 3584 2203 3584 
z
" transform="scale(0.015625)"/>
      <path id="DejaVuSans-Bold-6c" d="M 538 4863 
L 1656 4863 
L 1656 0 
L 538 0 
L 538 4863 
z
" transform="scale(0.015625)"/>
      <path id="DejaVuSans-Bold-72" d="M 3138 2547 
Q 2991 2616 2845 2648 
Q 2700 2681 2553 2681 
Q 2122 2681 1889 2404 
Q 1656 2128 1656 1613 
L 1656 0 
L 538 0 
L 538 3500 
L 1656 3500 
L 1656 2925 
Q 1872 3269 2151 3426 
Q 2431 3584 2822 3584 
Q 2878 3584 2943 3579 
Q 3009 3575 3134 3559 
L 3138 2547 
z
" transform="scale(0.015625)"/>
     </defs>
     <use xlink:href="#DejaVuSans-Bold-76"/>
     <use xlink:href="#DejaVuSans-Bold-69" x="65.185547"/>
     <use xlink:href="#DejaVuSans-Bold-65" x="99.462891"/>
     <use xlink:href="#DejaVuSans-Bold-74" x="167.285156"/>
     <use xlink:href="#DejaVuSans-Bold-6e" x="215.087891"/>
     <use xlink:href="#DejaVuSans-Bold-61" x="286.279297"/>
     <use xlink:href="#DejaVuSans-Bold-6d" x="353.759766"/>
     <use xlink:href="#DejaVuSans-Bold-65" x="457.958984"/>
     <use xlink:href="#DejaVuSans-Bold-73" x="525.78125"/>
     <use xlink:href="#DejaVuSans-Bold-65" x="585.302734"/>
     <use xlink:href="#DejaVuSans-Bold-20" x="653.125"/>
     <use xlink:href="#DejaVuSans-Bold-62" x="687.939453"/>
     <use xlink:href="#DejaVuSans-Bold-6f" x="759.521484"/>
     <use xlink:href="#DejaVuSans-Bold-6c" x="828.222656"/>
     <use xlink:href="#DejaVuSans-Bold-65" x="862.5"/>
     <use xlink:href="#DejaVuSans-Bold-72" x="930.322266"/>
     <use xlink:href="#DejaVuSans-Bold-6f" x="979.638672"/>
    </g>
    <!-- 79 -->
    <g transform="translate(114.316421 506.149787) scale(0.1 -0.1)">
     <defs>
      <path id="DejaVuSans-Bold-37" d="M 428 4666 
L 3944 4666 
L 3944 3988 
L 2125 0 
L 953 0 
L 2675 3781 
L 428 3781 
L 428 4666 
z
" transform="scale(0.015625)"/>
      <path id="DejaVuSans-Bold-39" d="M 641 103 
L 641 966 
Q 928 831 1190 764 
Q 1453 697 1709 697 
Q 2247 697 2547 995 
Q 2847 1294 2900 1881 
Q 2688 1725 2447 1647 
Q 2206 1569 1925 1569 
Q 1209 1569 770 1986 
Q 331 2403 331 3084 
Q 331 3838 820 4291 
Q 1309 4744 2131 4744 
Q 3044 4744 3544 4128 
Q 4044 3513 4044 2388 
Q 4044 1231 3459 570 
Q 2875 -91 1856 -91 
Q 1528 -91 1228 -42 
Q 928 6 641 103 
z
M 2125 2350 
Q 2441 2350 2600 2554 
Q 2759 2759 2759 3169 
Q 2759 3575 2600 3781 
Q 2441 3988 2125 3988 
Q 1809 3988 1650 3781 
Q 1491 3575 1491 3169 
Q 1491 2759 1650 2554 
Q 1809 2350 2125 2350 
z
" transform="scale(0.015625)"/>
     </defs>
     <use xlink:href="#DejaVuSans-Bold-37"/>
     <use xlink:href="#DejaVuSans-Bold-39" x="69.580078"/>
    </g>
   </g>
   <g id="text_2">
    <!-- k-rap -->
    <g transform="translate(95.327021 406.74586) scale(0.1 -0.1)">
     <defs>
      <path id="DejaVuSans-Bold-6b" d="M 538 4863 
L 1656 4863 
L 1656 2216 
L 2944 3500 
L 4244 3500 
L 2534 1894 
L 4378 0 
L 3022 0 
L 1656 1459 
L 1656 0 
L 538 0 
L 538 4863 
z
" transform="scale(0.015625)"/>
      <path id="DejaVuSans-Bold-2d" d="M 347 2297 
L 2309 2297 
L 2309 1388 
L 347 1388 
L 347 2297 
z
" transform="scale(0.015625)"/>
      <path id="DejaVuSans-Bold-70" d="M 1656 506 
L 1656 -1331 
L 538 -1331 
L 538 3500 
L 1656 3500 
L 1656 2988 
Q 1888 3294 2169 3439 
Q 2450 3584 2816 3584 
Q 3463 3584 3878 3070 
Q 4294 2556 4294 1747 
Q 4294 938 3878 423 
Q 3463 -91 2816 -91 
Q 2450 -91 2169 54 
Q 1888 200 1656 506 
z
M 2400 2772 
Q 2041 2772 1848 2508 
Q 1656 2244 1656 1747 
Q 1656 1250 1848 986 
Q 2041 722 2400 722 
Q 2759 722 2948 984 
Q 3138 1247 3138 1747 
Q 3138 2247 2948 2509 
Q 2759 2772 2400 2772 
z
" transform="scale(0.015625)"/>
     </defs>
     <use xlink:href="#DejaVuSans-Bold-6b"/>
     <use xlink:href="#DejaVuSans-Bold-2d" x="66.503906"/>
     <use xlink:href="#DejaVuSans-Bold-72" x="108.007812"/>
     <use xlink:href="#DejaVuSans-Bold-61" x="157.324219"/>
     <use xlink:href="#DejaVuSans-Bold-70" x="224.804688"/>
    </g>
    <!-- 91 -->
    <g transform="translate(103.187958 417.943672) scale(0.1 -0.1)">
     <defs>
      <path id="DejaVuSans-Bold-31" d="M 750 831 
L 1813 831 
L 1813 3847 
L 722 3622 
L 722 4441 
L 1806 4666 
L 2950 4666 
L 2950 831 
L 4013 831 
L 4013 0 
L 750 0 
L 750 831 
z
" transform="scale(0.015625)"/>
     </defs>
     <use xlink:href="#DejaVuSans-Bold-39"/>
     <use xlink:href="#DejaVuSans-Bold-31" x="69.580078"/>
    </g>
   </g>
   <g id="text_3">
    <!-- soft pop -->
    <g transform="translate(146.611677 445.937177) scale(0.1 -0.1)">
     <defs>
      <path id="DejaVuSans-Bold-66" d="M 2841 4863 
L 2841 4128 
L 2222 4128 
Q 1984 4128 1890 4042 
Q 1797 3956 1797 3744 
L 1797 3500 
L 2753 3500 
L 2753 2700 
L 1797 2700 
L 1797 0 
L 678 0 
L 678 2700 
L 122 2700 
L 122 3500 
L 678 3500 
L 678 3744 
Q 678 4316 997 4589 
Q 1316 4863 1984 4863 
L 2841 4863 
z
" transform="scale(0.015625)"/>
     </defs>
     <use xlink:href="#DejaVuSans-Bold-73"/>
     <use xlink:href="#DejaVuSans-Bold-6f" x="59.521484"/>
     <use xlink:href="#DejaVuSans-Bold-66" x="128.222656"/>
     <use xlink:href="#DejaVuSans-Bold-74" x="171.728516"/>
     <use xlink:href="#DejaVuSans-Bold-20" x="219.53125"/>
     <use xlink:href="#DejaVuSans-Bold-70" x="254.345703"/>
     <use xlink:href="#DejaVuSans-Bold-6f" x="325.927734"/>
     <use xlink:href="#DejaVuSans-Bold-70" x="394.628906"/>
    </g>
    <!-- 94 -->
    <g transform="translate(162.963239 457.134989) scale(0.1 -0.1)">
     <defs>
      <path id="DejaVuSans-Bold-34" d="M 2356 3675 
L 1038 1722 
L 2356 1722 
L 2356 3675 
z
M 2156 4666 
L 3494 4666 
L 3494 1722 
L 4159 1722 
L 4159 850 
L 3494 850 
L 3494 0 
L 2356 0 
L 2356 850 
L 288 850 
L 288 1881 
L 2156 4666 
z
" transform="scale(0.015625)"/>
     </defs>
     <use xlink:href="#DejaVuSans-Bold-39"/>
     <use xlink:href="#DejaVuSans-Bold-34" x="69.580078"/>
    </g>
   </g>
   <g id="text_4">
    <!-- pop -->
    <g transform="translate(133.621334 329.146985) scale(0.1 -0.1)">
     <use xlink:href="#DejaVuSans-Bold-70"/>
     <use xlink:href="#DejaVuSans-Bold-6f" x="71.582031"/>
     <use xlink:href="#DejaVuSans-Bold-70" x="140.283203"/>
    </g>
    <!-- 176 -->
    <g transform="translate(133.777584 340.344798) scale(0.1 -0.1)">
     <defs>
      <path id="DejaVuSans-Bold-36" d="M 2316 2303 
Q 2000 2303 1842 2098 
Q 1684 1894 1684 1484 
Q 1684 1075 1842 870 
Q 2000 666 2316 666 
Q 2634 666 2792 870 
Q 2950 1075 2950 1484 
Q 2950 1894 2792 2098 
Q 2634 2303 2316 2303 
z
M 3803 4544 
L 3803 3681 
Q 3506 3822 3243 3889 
Q 2981 3956 2731 3956 
Q 2194 3956 1894 3657 
Q 1594 3359 1544 2772 
Q 1750 2925 1990 3001 
Q 2231 3078 2516 3078 
Q 3231 3078 3670 2659 
Q 4109 2241 4109 1563 
Q 4109 813 3618 361 
Q 3128 -91 2303 -91 
Q 1394 -91 895 523 
Q 397 1138 397 2266 
Q 397 3422 980 4083 
Q 1563 4744 2578 4744 
Q 2900 4744 3203 4694 
Q 3506 4644 3803 4544 
z
" transform="scale(0.015625)"/>
     </defs>
     <use xlink:href="#DejaVuSans-Bold-31"/>
     <use xlink:href="#DejaVuSans-Bold-37" x="69.580078"/>
     <use xlink:href="#DejaVuSans-Bold-36" x="139.160156"/>
    </g>
   </g>
   <g id="text_5">
    <!-- vinahouse -->
    <g transform="translate(193.489472 553.837107) scale(0.1 -0.1)">
     <defs>
      <path id="DejaVuSans-Bold-68" d="M 4056 2131 
L 4056 0 
L 2931 0 
L 2931 347 
L 2931 1625 
Q 2931 2084 2911 2256 
Q 2891 2428 2841 2509 
Q 2775 2619 2662 2680 
Q 2550 2741 2406 2741 
Q 2056 2741 1856 2470 
Q 1656 2200 1656 1722 
L 1656 0 
L 538 0 
L 538 4863 
L 1656 4863 
L 1656 2988 
Q 1909 3294 2193 3439 
Q 2478 3584 2822 3584 
Q 3428 3584 3742 3212 
Q 4056 2841 4056 2131 
z
" transform="scale(0.015625)"/>
      <path id="DejaVuSans-Bold-75" d="M 500 1363 
L 500 3500 
L 1625 3500 
L 1625 3150 
Q 1625 2866 1622 2436 
Q 1619 2006 1619 1863 
Q 1619 1441 1641 1255 
Q 1663 1069 1716 984 
Q 1784 875 1895 815 
Q 2006 756 2150 756 
Q 2500 756 2700 1025 
Q 2900 1294 2900 1772 
L 2900 3500 
L 4019 3500 
L 4019 0 
L 2900 0 
L 2900 506 
Q 2647 200 2364 54 
Q 2081 -91 1741 -91 
Q 1134 -91 817 281 
Q 500 653 500 1363 
z
" transform="scale(0.015625)"/>
     </defs>
     <use xlink:href="#DejaVuSans-Bold-76"/>
     <use xlink:href="#DejaVuSans-Bold-69" x="65.185547"/>
     <use xlink:href="#DejaVuSans-Bold-6e" x="99.462891"/>
     <use xlink:href="#DejaVuSans-Bold-61" x="170.654297"/>
     <use xlink:href="#DejaVuSans-Bold-68" x="238.134766"/>
     <use xlink:href="#DejaVuSans-Bold-6f" x="309.326172"/>
     <use xlink:href="#DejaVuSans-Bold-75" x="378.027344"/>
     <use xlink:href="#DejaVuSans-Bold-73" x="449.21875"/>
     <use xlink:href="#DejaVuSans-Bold-65" x="508.740234"/>
    </g>
    <!-- 510 -->
    <g transform="translate(211.880879 565.034919) scale(0.1 -0.1)">
     <defs>
      <path id="DejaVuSans-Bold-35" d="M 678 4666 
L 3669 4666 
L 3669 3781 
L 1638 3781 
L 1638 3059 
Q 1775 3097 1914 3117 
Q 2053 3138 2203 3138 
Q 3056 3138 3531 2711 
Q 4006 2284 4006 1522 
Q 4006 766 3489 337 
Q 2972 -91 2053 -91 
Q 1656 -91 1267 -14 
Q 878 63 494 219 
L 494 1166 
Q 875 947 1217 837 
Q 1559 728 1863 728 
Q 2300 728 2551 942 
Q 2803 1156 2803 1522 
Q 2803 1891 2551 2103 
Q 2300 2316 1863 2316 
Q 1603 2316 1309 2248 
Q 1016 2181 678 2041 
L 678 4666 
z
" transform="scale(0.015625)"/>
      <path id="DejaVuSans-Bold-30" d="M 2944 2338 
Q 2944 3213 2780 3570 
Q 2616 3928 2228 3928 
Q 1841 3928 1675 3570 
Q 1509 3213 1509 2338 
Q 1509 1453 1675 1090 
Q 1841 728 2228 728 
Q 2613 728 2778 1090 
Q 2944 1453 2944 2338 
z
M 4147 2328 
Q 4147 1169 3647 539 
Q 3147 -91 2228 -91 
Q 1306 -91 806 539 
Q 306 1169 306 2328 
Q 306 3491 806 4120 
Q 1306 4750 2228 4750 
Q 3147 4750 3647 4120 
Q 4147 3491 4147 2328 
z
" transform="scale(0.015625)"/>
     </defs>
     <use xlink:href="#DejaVuSans-Bold-35"/>
     <use xlink:href="#DejaVuSans-Bold-31" x="69.580078"/>
     <use xlink:href="#DejaVuSans-Bold-30" x="139.160156"/>
    </g>
   </g>
   <g id="text_6">
    <!-- vietnamese lo-fi -->
    <g transform="translate(150.770505 195.631157) scale(0.1 -0.1)">
     <use xlink:href="#DejaVuSans-Bold-76"/>
     <use xlink:href="#DejaVuSans-Bold-69" x="65.185547"/>
     <use xlink:href="#DejaVuSans-Bold-65" x="99.462891"/>
     <use xlink:href="#DejaVuSans-Bold-74" x="167.285156"/>
     <use xlink:href="#DejaVuSans-Bold-6e" x="215.087891"/>
     <use xlink:href="#DejaVuSans-Bold-61" x="286.279297"/>
     <use xlink:href="#DejaVuSans-Bold-6d" x="353.759766"/>
     <use xlink:href="#DejaVuSans-Bold-65" x="457.958984"/>
     <use xlink:href="#DejaVuSans-Bold-73" x="525.78125"/>
     <use xlink:href="#DejaVuSans-Bold-65" x="585.302734"/>
     <use xlink:href="#DejaVuSans-Bold-20" x="653.125"/>
     <use xlink:href="#DejaVuSans-Bold-6c" x="687.939453"/>
     <use xlink:href="#DejaVuSans-Bold-6f" x="722.216797"/>
     <use xlink:href="#DejaVuSans-Bold-2d" x="790.917969"/>
     <use xlink:href="#DejaVuSans-Bold-66" x="832.421875"/>
     <use xlink:href="#DejaVuSans-Bold-69" x="875.927734"/>
    </g>
    <!-- 640 -->
    <g transform="translate(185.844724 206.828969) scale(0.1 -0.1)">
     <use xlink:href="#DejaVuSans-Bold-36"/>
     <use xlink:href="#DejaVuSans-Bold-34" x="69.580078"/>
     <use xlink:href="#DejaVuSans-Bold-30" x="139.160156"/>
    </g>
   </g>
   <g id="text_7">
    <!-- k-pop -->
    <g transform="translate(384.912156 553.09683) scale(0.1 -0.1)">
     <use xlink:href="#DejaVuSans-Bold-6b"/>
     <use xlink:href="#DejaVuSans-Bold-2d" x="66.503906"/>
     <use xlink:href="#DejaVuSans-Bold-70" x="108.007812"/>
     <use xlink:href="#DejaVuSans-Bold-6f" x="179.589844"/>
     <use xlink:href="#DejaVuSans-Bold-70" x="248.291016"/>
    </g>
    <!-- 649 -->
    <g transform="translate(390.468406 564.294643) scale(0.1 -0.1)">
     <use xlink:href="#DejaVuSans-Bold-36"/>
     <use xlink:href="#DejaVuSans-Bold-34" x="69.580078"/>
     <use xlink:href="#DejaVuSans-Bold-39" x="139.160156"/>
    </g>
   </g>
   <g id="text_8">
    <!-- vietnamese hip hop -->
    <g transform="translate(343.80777 176.438312) scale(0.1 -0.1)">
     <use xlink:href="#DejaVuSans-Bold-76"/>
     <use xlink:href="#DejaVuSans-Bold-69" x="65.185547"/>
     <use xlink:href="#DejaVuSans-Bold-65" x="99.462891"/>
     <use xlink:href="#DejaVuSans-Bold-74" x="167.285156"/>
     <use xlink:href="#DejaVuSans-Bold-6e" x="215.087891"/>
     <use xlink:href="#DejaVuSans-Bold-61" x="286.279297"/>
     <use xlink:href="#DejaVuSans-Bold-6d" x="353.759766"/>
     <use xlink:href="#DejaVuSans-Bold-65" x="457.958984"/>
     <use xlink:href="#DejaVuSans-Bold-73" x="525.78125"/>
     <use xlink:href="#DejaVuSans-Bold-65" x="585.302734"/>
     <use xlink:href="#DejaVuSans-Bold-20" x="653.125"/>
     <use xlink:href="#DejaVuSans-Bold-68" x="687.939453"/>
     <use xlink:href="#DejaVuSans-Bold-69" x="759.130859"/>
     <use xlink:href="#DejaVuSans-Bold-70" x="793.408203"/>
     <use xlink:href="#DejaVuSans-Bold-20" x="864.990234"/>
     <use xlink:href="#DejaVuSans-Bold-68" x="899.804688"/>
     <use xlink:href="#DejaVuSans-Bold-6f" x="970.996094"/>
     <use xlink:href="#DejaVuSans-Bold-70" x="1039.697266"/>
    </g>
    <!-- 876 -->
    <g transform="translate(388.935114 187.636124) scale(0.1 -0.1)">
     <defs>
      <path id="DejaVuSans-Bold-38" d="M 2228 2088 
Q 1891 2088 1709 1903 
Q 1528 1719 1528 1375 
Q 1528 1031 1709 848 
Q 1891 666 2228 666 
Q 2563 666 2741 848 
Q 2919 1031 2919 1375 
Q 2919 1722 2741 1905 
Q 2563 2088 2228 2088 
z
M 1350 2484 
Q 925 2613 709 2878 
Q 494 3144 494 3541 
Q 494 4131 934 4440 
Q 1375 4750 2228 4750 
Q 3075 4750 3515 4442 
Q 3956 4134 3956 3541 
Q 3956 3144 3739 2878 
Q 3522 2613 3097 2484 
Q 3572 2353 3814 2058 
Q 4056 1763 4056 1313 
Q 4056 619 3595 264 
Q 3134 -91 2228 -91 
Q 1319 -91 855 264 
Q 391 619 391 1313 
Q 391 1763 633 2058 
Q 875 2353 1350 2484 
z
M 1631 3419 
Q 1631 3141 1786 2991 
Q 1941 2841 2228 2841 
Q 2509 2841 2662 2991 
Q 2816 3141 2816 3419 
Q 2816 3697 2662 3845 
Q 2509 3994 2228 3994 
Q 1941 3994 1786 3844 
Q 1631 3694 1631 3419 
z
" transform="scale(0.015625)"/>
     </defs>
     <use xlink:href="#DejaVuSans-Bold-38"/>
     <use xlink:href="#DejaVuSans-Bold-37" x="69.580078"/>
     <use xlink:href="#DejaVuSans-Bold-36" x="139.160156"/>
    </g>
   </g>
   <g id="text_9">
    <!-- vietnam indie -->
    <g transform="translate(260.179246 373.879839) scale(0.1 -0.1)">
     <defs>
      <path id="DejaVuSans-Bold-64" d="M 2919 2988 
L 2919 4863 
L 4044 4863 
L 4044 0 
L 2919 0 
L 2919 506 
Q 2688 197 2409 53 
Q 2131 -91 1766 -91 
Q 1119 -91 703 423 
Q 288 938 288 1747 
Q 288 2556 703 3070 
Q 1119 3584 1766 3584 
Q 2128 3584 2408 3439 
Q 2688 3294 2919 2988 
z
M 2181 722 
Q 2541 722 2730 984 
Q 2919 1247 2919 1747 
Q 2919 2247 2730 2509 
Q 2541 2772 2181 2772 
Q 1825 2772 1636 2509 
Q 1447 2247 1447 1747 
Q 1447 1247 1636 984 
Q 1825 722 2181 722 
z
" transform="scale(0.015625)"/>
     </defs>
     <use xlink:href="#DejaVuSans-Bold-76"/>
     <use xlink:href="#DejaVuSans-Bold-69" x="65.185547"/>
     <use xlink:href="#DejaVuSans-Bold-65" x="99.462891"/>
     <use xlink:href="#DejaVuSans-Bold-74" x="167.285156"/>
     <use xlink:href="#DejaVuSans-Bold-6e" x="215.087891"/>
     <use xlink:href="#DejaVuSans-Bold-61" x="286.279297"/>
     <use xlink:href="#DejaVuSans-Bold-6d" x="353.759766"/>
     <use xlink:href="#DejaVuSans-Bold-20" x="457.958984"/>
     <use xlink:href="#DejaVuSans-Bold-69" x="492.773438"/>
     <use xlink:href="#DejaVuSans-Bold-6e" x="527.050781"/>
     <use xlink:href="#DejaVuSans-Bold-64" x="598.242188"/>
     <use xlink:href="#DejaVuSans-Bold-69" x="669.824219"/>
     <use xlink:href="#DejaVuSans-Bold-65" x="704.101562"/>
    </g>
    <!-- 902 -->
    <g transform="translate(288.339402 385.077652) scale(0.1 -0.1)">
     <defs>
      <path id="DejaVuSans-Bold-32" d="M 1844 884 
L 3897 884 
L 3897 0 
L 506 0 
L 506 884 
L 2209 2388 
Q 2438 2594 2547 2791 
Q 2656 2988 2656 3200 
Q 2656 3528 2436 3728 
Q 2216 3928 1850 3928 
Q 1569 3928 1234 3808 
Q 900 3688 519 3450 
L 519 4475 
Q 925 4609 1322 4679 
Q 1719 4750 2100 4750 
Q 2938 4750 3402 4381 
Q 3866 4013 3866 3353 
Q 3866 2972 3669 2642 
Q 3472 2313 2841 1759 
L 1844 884 
z
" transform="scale(0.015625)"/>
     </defs>
     <use xlink:href="#DejaVuSans-Bold-39"/>
     <use xlink:href="#DejaVuSans-Bold-30" x="69.580078"/>
     <use xlink:href="#DejaVuSans-Bold-32" x="139.160156"/>
    </g>
   </g>
   <g id="text_10">
    <!-- v-pop -->
    <g transform="translate(530.890249 373.879839) scale(0.1 -0.1)">
     <use xlink:href="#DejaVuSans-Bold-76"/>
     <use xlink:href="#DejaVuSans-Bold-2d" x="65.185547"/>
     <use xlink:href="#DejaVuSans-Bold-70" x="106.689453"/>
     <use xlink:href="#DejaVuSans-Bold-6f" x="178.271484"/>
     <use xlink:href="#DejaVuSans-Bold-70" x="246.972656"/>
    </g>
    <!-- 1348 -->
    <g transform="translate(532.901968 385.077652) scale(0.1 -0.1)">
     <defs>
      <path id="DejaVuSans-Bold-33" d="M 2981 2516 
Q 3453 2394 3698 2092 
Q 3944 1791 3944 1325 
Q 3944 631 3412 270 
Q 2881 -91 1863 -91 
Q 1503 -91 1142 -33 
Q 781 25 428 141 
L 428 1069 
Q 766 900 1098 814 
Q 1431 728 1753 728 
Q 2231 728 2486 893 
Q 2741 1059 2741 1369 
Q 2741 1688 2480 1852 
Q 2219 2016 1709 2016 
L 1228 2016 
L 1228 2791 
L 1734 2791 
Q 2188 2791 2409 2933 
Q 2631 3075 2631 3366 
Q 2631 3634 2415 3781 
Q 2200 3928 1806 3928 
Q 1516 3928 1219 3862 
Q 922 3797 628 3669 
L 628 4550 
Q 984 4650 1334 4700 
Q 1684 4750 2022 4750 
Q 2931 4750 3382 4451 
Q 3834 4153 3834 3553 
Q 3834 3144 3618 2883 
Q 3403 2622 2981 2516 
z
" transform="scale(0.015625)"/>
     </defs>
     <use xlink:href="#DejaVuSans-Bold-31"/>
     <use xlink:href="#DejaVuSans-Bold-33" x="69.580078"/>
     <use xlink:href="#DejaVuSans-Bold-34" x="139.160156"/>
     <use xlink:href="#DejaVuSans-Bold-38" x="208.740234"/>
    </g>
   </g>
   <g id="text_11">
    <!-- Top 10 thể loại phổ biến nhất theo số lượng bài hát -->
    <g transform="translate(155.73 32.6725) scale(0.16 -0.16)">
     <defs>
      <path id="DejaVuSans-54" d="M -19 4666 
L 3928 4666 
L 3928 4134 
L 2272 4134 
L 2272 0 
L 1638 0 
L 1638 4134 
L -19 4134 
L -19 4666 
z
" transform="scale(0.015625)"/>
      <path id="DejaVuSans-6f" d="M 1959 3097 
Q 1497 3097 1228 2736 
Q 959 2375 959 1747 
Q 959 1119 1226 758 
Q 1494 397 1959 397 
Q 2419 397 2687 759 
Q 2956 1122 2956 1747 
Q 2956 2369 2687 2733 
Q 2419 3097 1959 3097 
z
M 1959 3584 
Q 2709 3584 3137 3096 
Q 3566 2609 3566 1747 
Q 3566 888 3137 398 
Q 2709 -91 1959 -91 
Q 1206 -91 779 398 
Q 353 888 353 1747 
Q 353 2609 779 3096 
Q 1206 3584 1959 3584 
z
" transform="scale(0.015625)"/>
      <path id="DejaVuSans-70" d="M 1159 525 
L 1159 -1331 
L 581 -1331 
L 581 3500 
L 1159 3500 
L 1159 2969 
Q 1341 3281 1617 3432 
Q 1894 3584 2278 3584 
Q 2916 3584 3314 3078 
Q 3713 2572 3713 1747 
Q 3713 922 3314 415 
Q 2916 -91 2278 -91 
Q 1894 -91 1617 61 
Q 1341 213 1159 525 
z
M 3116 1747 
Q 3116 2381 2855 2742 
Q 2594 3103 2138 3103 
Q 1681 3103 1420 2742 
Q 1159 2381 1159 1747 
Q 1159 1113 1420 752 
Q 1681 391 2138 391 
Q 2594 391 2855 752 
Q 3116 1113 3116 1747 
z
" transform="scale(0.015625)"/>
      <path id="DejaVuSans-20" transform="scale(0.015625)"/>
      <path id="DejaVuSans-31" d="M 794 531 
L 1825 531 
L 1825 4091 
L 703 3866 
L 703 4441 
L 1819 4666 
L 2450 4666 
L 2450 531 
L 3481 531 
L 3481 0 
L 794 0 
L 794 531 
z
" transform="scale(0.015625)"/>
      <path id="DejaVuSans-30" d="M 2034 4250 
Q 1547 4250 1301 3770 
Q 1056 3291 1056 2328 
Q 1056 1369 1301 889 
Q 1547 409 2034 409 
Q 2525 409 2770 889 
Q 3016 1369 3016 2328 
Q 3016 3291 2770 3770 
Q 2525 4250 2034 4250 
z
M 2034 4750 
Q 2819 4750 3233 4129 
Q 3647 3509 3647 2328 
Q 3647 1150 3233 529 
Q 2819 -91 2034 -91 
Q 1250 -91 836 529 
Q 422 1150 422 2328 
Q 422 3509 836 4129 
Q 1250 4750 2034 4750 
z
" transform="scale(0.015625)"/>
      <path id="DejaVuSans-74" d="M 1172 4494 
L 1172 3500 
L 2356 3500 
L 2356 3053 
L 1172 3053 
L 1172 1153 
Q 1172 725 1289 603 
Q 1406 481 1766 481 
L 2356 481 
L 2356 0 
L 1766 0 
Q 1100 0 847 248 
Q 594 497 594 1153 
L 594 3053 
L 172 3053 
L 172 3500 
L 594 3500 
L 594 4494 
L 1172 4494 
z
" transform="scale(0.015625)"/>
      <path id="DejaVuSans-68" d="M 3513 2113 
L 3513 0 
L 2938 0 
L 2938 2094 
Q 2938 2591 2744 2837 
Q 2550 3084 2163 3084 
Q 1697 3084 1428 2787 
Q 1159 2491 1159 1978 
L 1159 0 
L 581 0 
L 581 4863 
L 1159 4863 
L 1159 2956 
Q 1366 3272 1645 3428 
Q 1925 3584 2291 3584 
Q 2894 3584 3203 3211 
Q 3513 2838 3513 2113 
z
" transform="scale(0.015625)"/>
      <path id="DejaVuSans-1ec3" d="M 3597 1894 
L 3597 1613 
L 953 1613 
Q 991 1019 1311 708 
Q 1631 397 2203 397 
Q 2534 397 2845 478 
Q 3156 559 3463 722 
L 3463 178 
Q 3153 47 2828 -22 
Q 2503 -91 2169 -91 
Q 1331 -91 842 396 
Q 353 884 353 1716 
Q 353 2575 817 3079 
Q 1281 3584 2069 3584 
Q 2775 3584 3186 3129 
Q 3597 2675 3597 1894 
z
M 3022 2063 
Q 3016 2534 2758 2815 
Q 2500 3097 2075 3097 
Q 1594 3097 1305 2825 
Q 1016 2553 972 2059 
L 3022 2063 
z
M 2472 5359 
Q 2822 5518 3150 5518 
Q 3475 5518 3673 5385 
Q 3872 5253 3872 5043 
Q 3872 4853 3597 4650 
L 3459 4550 
Q 3350 4468 3338 4440 
Q 3316 4390 3316 4290 
L 2944 4290 
L 2944 4328 
Q 2944 4453 2991 4537 
Q 3038 4622 3197 4737 
L 3338 4843 
Q 3481 4950 3481 5075 
Q 3481 5140 3384 5196 
Q 3288 5253 3066 5253 
Q 2784 5253 2472 5090 
L 2472 5359 
z
M 1744 4775 
L 2331 4775 
L 2991 3944 
L 2556 3944 
L 2038 4500 
L 1519 3944 
L 1084 3944 
L 1744 4775 
z
" transform="scale(0.015625)"/>
      <path id="DejaVuSans-6c" d="M 603 4863 
L 1178 4863 
L 1178 0 
L 603 0 
L 603 4863 
z
" transform="scale(0.015625)"/>
      <path id="DejaVuSans-1ea1" d="M 1409 -441 
L 1984 -441 
L 1984 -1172 
L 1409 -1172 
L 1409 -441 
z
M 2194 1759 
Q 1497 1759 1228 1600 
Q 959 1441 959 1056 
Q 959 750 1161 570 
Q 1363 391 1709 391 
Q 2188 391 2477 730 
Q 2766 1069 2766 1631 
L 2766 1759 
L 2194 1759 
z
M 3341 1997 
L 3341 0 
L 2766 0 
L 2766 531 
Q 2569 213 2275 61 
Q 1981 -91 1556 -91 
Q 1019 -91 701 211 
Q 384 513 384 1019 
Q 384 1609 779 1909 
Q 1175 2209 1959 2209 
L 2766 2209 
L 2766 2266 
Q 2766 2663 2505 2880 
Q 2244 3097 1772 3097 
Q 1472 3097 1187 3025 
Q 903 2953 641 2809 
L 641 3341 
Q 956 3463 1253 3523 
Q 1550 3584 1831 3584 
Q 2591 3584 2966 3190 
Q 3341 2797 3341 1997 
z
" transform="scale(0.015625)"/>
      <path id="DejaVuSans-69" d="M 603 3500 
L 1178 3500 
L 1178 0 
L 603 0 
L 603 3500 
z
M 603 4863 
L 1178 4863 
L 1178 4134 
L 603 4134 
L 603 4863 
z
" transform="scale(0.015625)"/>
      <path id="DejaVuSans-1ed5" d="M 2391 5359 
Q 2741 5518 3069 5518 
Q 3394 5518 3592 5385 
Q 3791 5253 3791 5043 
Q 3791 4853 3516 4650 
L 3378 4550 
Q 3269 4468 3256 4440 
Q 3234 4390 3234 4290 
L 2863 4290 
L 2863 4328 
Q 2863 4453 2909 4537 
Q 2956 4622 3116 4737 
L 3256 4843 
Q 3400 4950 3400 5075 
Q 3400 5140 3303 5196 
Q 3206 5253 2984 5253 
Q 2703 5253 2391 5090 
L 2391 5359 
z
M 1663 4775 
L 2250 4775 
L 2909 3944 
L 2475 3944 
L 1956 4500 
L 1438 3944 
L 1003 3944 
L 1663 4775 
z
M 1959 3097 
Q 1497 3097 1228 2736 
Q 959 2375 959 1747 
Q 959 1119 1226 758 
Q 1494 397 1959 397 
Q 2419 397 2687 759 
Q 2956 1122 2956 1747 
Q 2956 2369 2687 2733 
Q 2419 3097 1959 3097 
z
M 1959 3584 
Q 2709 3584 3137 3096 
Q 3566 2609 3566 1747 
Q 3566 888 3137 398 
Q 2709 -91 1959 -91 
Q 1206 -91 779 398 
Q 353 888 353 1747 
Q 353 2609 779 3096 
Q 1206 3584 1959 3584 
z
" transform="scale(0.015625)"/>
      <path id="DejaVuSans-62" d="M 3116 1747 
Q 3116 2381 2855 2742 
Q 2594 3103 2138 3103 
Q 1681 3103 1420 2742 
Q 1159 2381 1159 1747 
Q 1159 1113 1420 752 
Q 1681 391 2138 391 
Q 2594 391 2855 752 
Q 3116 1113 3116 1747 
z
M 1159 2969 
Q 1341 3281 1617 3432 
Q 1894 3584 2278 3584 
Q 2916 3584 3314 3078 
Q 3713 2572 3713 1747 
Q 3713 922 3314 415 
Q 2916 -91 2278 -91 
Q 1894 -91 1617 61 
Q 1341 213 1159 525 
L 1159 0 
L 581 0 
L 581 4863 
L 1159 4863 
L 1159 2969 
z
" transform="scale(0.015625)"/>
      <path id="DejaVuSans-1ebf" d="M 1744 4775 
L 2331 4775 
L 2991 3944 
L 2556 3944 
L 2038 4500 
L 1519 3944 
L 1084 3944 
L 1744 4775 
z
M 3347 5416 
L 3925 5416 
L 3213 4591 
L 2734 4591 
L 3347 5416 
z
M 3597 1894 
L 3597 1613 
L 953 1613 
Q 991 1019 1311 708 
Q 1631 397 2203 397 
Q 2534 397 2845 478 
Q 3156 559 3463 722 
L 3463 178 
Q 3153 47 2828 -22 
Q 2503 -91 2169 -91 
Q 1331 -91 842 396 
Q 353 884 353 1716 
Q 353 2575 817 3079 
Q 1281 3584 2069 3584 
Q 2775 3584 3186 3129 
Q 3597 2675 3597 1894 
z
M 3022 2063 
Q 3016 2534 2758 2815 
Q 2500 3097 2075 3097 
Q 1594 3097 1305 2825 
Q 1016 2553 972 2059 
L 3022 2063 
z
" transform="scale(0.015625)"/>
      <path id="DejaVuSans-6e" d="M 3513 2113 
L 3513 0 
L 2938 0 
L 2938 2094 
Q 2938 2591 2744 2837 
Q 2550 3084 2163 3084 
Q 1697 3084 1428 2787 
Q 1159 2491 1159 1978 
L 1159 0 
L 581 0 
L 581 3500 
L 1159 3500 
L 1159 2956 
Q 1366 3272 1645 3428 
Q 1925 3584 2291 3584 
Q 2894 3584 3203 3211 
Q 3513 2838 3513 2113 
z
" transform="scale(0.015625)"/>
      <path id="DejaVuSans-1ea5" d="M 1566 4775 
L 2153 4775 
L 2813 3944 
L 2378 3944 
L 1859 4500 
L 1341 3944 
L 906 3944 
L 1566 4775 
z
M 3169 5416 
L 3747 5416 
L 3034 4591 
L 2556 4591 
L 3169 5416 
z
M 2194 1759 
Q 1497 1759 1228 1600 
Q 959 1441 959 1056 
Q 959 750 1161 570 
Q 1363 391 1709 391 
Q 2188 391 2477 730 
Q 2766 1069 2766 1631 
L 2766 1759 
L 2194 1759 
z
M 3341 1997 
L 3341 0 
L 2766 0 
L 2766 531 
Q 2569 213 2275 61 
Q 1981 -91 1556 -91 
Q 1019 -91 701 211 
Q 384 513 384 1019 
Q 384 1609 779 1909 
Q 1175 2209 1959 2209 
L 2766 2209 
L 2766 2266 
Q 2766 2663 2505 2880 
Q 2244 3097 1772 3097 
Q 1472 3097 1187 3025 
Q 903 2953 641 2809 
L 641 3341 
Q 956 3463 1253 3523 
Q 1550 3584 1831 3584 
Q 2591 3584 2966 3190 
Q 3341 2797 3341 1997 
z
" transform="scale(0.015625)"/>
      <path id="DejaVuSans-65" d="M 3597 1894 
L 3597 1613 
L 953 1613 
Q 991 1019 1311 708 
Q 1631 397 2203 397 
Q 2534 397 2845 478 
Q 3156 559 3463 722 
L 3463 178 
Q 3153 47 2828 -22 
Q 2503 -91 2169 -91 
Q 1331 -91 842 396 
Q 353 884 353 1716 
Q 353 2575 817 3079 
Q 1281 3584 2069 3584 
Q 2775 3584 3186 3129 
Q 3597 2675 3597 1894 
z
M 3022 2063 
Q 3016 2534 2758 2815 
Q 2500 3097 2075 3097 
Q 1594 3097 1305 2825 
Q 1016 2553 972 2059 
L 3022 2063 
z
" transform="scale(0.015625)"/>
      <path id="DejaVuSans-73" d="M 2834 3397 
L 2834 2853 
Q 2591 2978 2328 3040 
Q 2066 3103 1784 3103 
Q 1356 3103 1142 2972 
Q 928 2841 928 2578 
Q 928 2378 1081 2264 
Q 1234 2150 1697 2047 
L 1894 2003 
Q 2506 1872 2764 1633 
Q 3022 1394 3022 966 
Q 3022 478 2636 193 
Q 2250 -91 1575 -91 
Q 1294 -91 989 -36 
Q 684 19 347 128 
L 347 722 
Q 666 556 975 473 
Q 1284 391 1588 391 
Q 1994 391 2212 530 
Q 2431 669 2431 922 
Q 2431 1156 2273 1281 
Q 2116 1406 1581 1522 
L 1381 1569 
Q 847 1681 609 1914 
Q 372 2147 372 2553 
Q 372 3047 722 3315 
Q 1072 3584 1716 3584 
Q 2034 3584 2315 3537 
Q 2597 3491 2834 3397 
z
" transform="scale(0.015625)"/>
      <path id="DejaVuSans-1ed1" d="M 1663 4775 
L 2250 4775 
L 2909 3944 
L 2475 3944 
L 1956 4500 
L 1438 3944 
L 1003 3944 
L 1663 4775 
z
M 3266 5416 
L 3844 5416 
L 3131 4591 
L 2653 4591 
L 3266 5416 
z
M 1959 3097 
Q 1497 3097 1228 2736 
Q 959 2375 959 1747 
Q 959 1119 1226 758 
Q 1494 397 1959 397 
Q 2419 397 2687 759 
Q 2956 1122 2956 1747 
Q 2956 2369 2687 2733 
Q 2419 3097 1959 3097 
z
M 1959 3584 
Q 2709 3584 3137 3096 
Q 3566 2609 3566 1747 
Q 3566 888 3137 398 
Q 2709 -91 1959 -91 
Q 1206 -91 779 398 
Q 353 888 353 1747 
Q 353 2609 779 3096 
Q 1206 3584 1959 3584 
z
" transform="scale(0.015625)"/>
      <path id="DejaVuSans-1b0" d="M 3094 3106 
L 3094 3478 
Q 3284 3337 3421 3270 
Q 3559 3203 3656 3203 
Q 3800 3203 3872 3289 
Q 3944 3375 3944 3543 
Q 3944 3643 3920 3740 
Q 3897 3837 3850 3934 
L 4266 3934 
Q 4297 3815 4312 3709 
Q 4328 3603 4328 3509 
Q 4328 3128 4192 2948 
Q 4056 2768 3766 2768 
Q 3616 2768 3452 2851 
Q 3288 2934 3094 3106 
z
M 550 1381 
L 550 3500 
L 1125 3500 
L 1125 1403 
Q 1125 906 1319 657 
Q 1513 409 1900 409 
Q 2366 409 2636 706 
Q 2906 1003 2906 1516 
L 2906 3500 
L 3481 3500 
L 3481 0 
L 2906 0 
L 2906 538 
Q 2697 219 2420 64 
Q 2144 -91 1778 -91 
Q 1175 -91 862 284 
Q 550 659 550 1381 
z
M 1997 3584 
L 1997 3584 
z
" transform="scale(0.015625)"/>
      <path id="DejaVuSans-1ee3" d="M 2625 3106 
L 2625 3478 
Q 2816 3337 2953 3270 
Q 3091 3203 3188 3203 
Q 3331 3203 3403 3289 
Q 3475 3375 3475 3543 
Q 3475 3643 3451 3740 
Q 3428 3837 3381 3934 
L 3797 3934 
Q 3828 3815 3843 3709 
Q 3859 3603 3859 3509 
Q 3859 3128 3723 2948 
Q 3588 2768 3297 2768 
Q 3147 2768 2983 2851 
Q 2819 2934 2625 3106 
z
M 1975 3097 
Q 1513 3097 1244 2736 
Q 975 2375 975 1747 
Q 975 1119 1242 758 
Q 1509 397 1975 397 
Q 2434 397 2703 759 
Q 2972 1122 2972 1747 
Q 2972 2369 2703 2733 
Q 2434 3097 1975 3097 
z
M 1975 3584 
Q 2725 3584 3153 3096 
Q 3581 2609 3581 1747 
Q 3581 888 3153 398 
Q 2725 -91 1975 -91 
Q 1222 -91 795 398 
Q 369 888 369 1747 
Q 369 2609 795 3096 
Q 1222 3584 1975 3584 
z
M 1666 -441 
L 2241 -441 
L 2241 -1172 
L 1666 -1172 
L 1666 -441 
z
" transform="scale(0.015625)"/>
      <path id="DejaVuSans-67" d="M 2906 1791 
Q 2906 2416 2648 2759 
Q 2391 3103 1925 3103 
Q 1463 3103 1205 2759 
Q 947 2416 947 1791 
Q 947 1169 1205 825 
Q 1463 481 1925 481 
Q 2391 481 2648 825 
Q 2906 1169 2906 1791 
z
M 3481 434 
Q 3481 -459 3084 -895 
Q 2688 -1331 1869 -1331 
Q 1566 -1331 1297 -1286 
Q 1028 -1241 775 -1147 
L 775 -588 
Q 1028 -725 1275 -790 
Q 1522 -856 1778 -856 
Q 2344 -856 2625 -561 
Q 2906 -266 2906 331 
L 2906 616 
Q 2728 306 2450 153 
Q 2172 0 1784 0 
Q 1141 0 747 490 
Q 353 981 353 1791 
Q 353 2603 747 3093 
Q 1141 3584 1784 3584 
Q 2172 3584 2450 3431 
Q 2728 3278 2906 2969 
L 2906 3500 
L 3481 3500 
L 3481 434 
z
" transform="scale(0.015625)"/>
      <path id="DejaVuSans-e0" d="M 2194 1759 
Q 1497 1759 1228 1600 
Q 959 1441 959 1056 
Q 959 750 1161 570 
Q 1363 391 1709 391 
Q 2188 391 2477 730 
Q 2766 1069 2766 1631 
L 2766 1759 
L 2194 1759 
z
M 3341 1997 
L 3341 0 
L 2766 0 
L 2766 531 
Q 2569 213 2275 61 
Q 1981 -91 1556 -91 
Q 1019 -91 701 211 
Q 384 513 384 1019 
Q 384 1609 779 1909 
Q 1175 2209 1959 2209 
L 2766 2209 
L 2766 2266 
Q 2766 2663 2505 2880 
Q 2244 3097 1772 3097 
Q 1472 3097 1187 3025 
Q 903 2953 641 2809 
L 641 3341 
Q 956 3463 1253 3523 
Q 1550 3584 1831 3584 
Q 2591 3584 2966 3190 
Q 3341 2797 3341 1997 
z
M 1403 5119 
L 2284 3950 
L 1806 3950 
L 788 5119 
L 1403 5119 
z
" transform="scale(0.015625)"/>
      <path id="DejaVuSans-e1" d="M 2194 1759 
Q 1497 1759 1228 1600 
Q 959 1441 959 1056 
Q 959 750 1161 570 
Q 1363 391 1709 391 
Q 2188 391 2477 730 
Q 2766 1069 2766 1631 
L 2766 1759 
L 2194 1759 
z
M 3341 1997 
L 3341 0 
L 2766 0 
L 2766 531 
Q 2569 213 2275 61 
Q 1981 -91 1556 -91 
Q 1019 -91 701 211 
Q 384 513 384 1019 
Q 384 1609 779 1909 
Q 1175 2209 1959 2209 
L 2766 2209 
L 2766 2266 
Q 2766 2663 2505 2880 
Q 2244 3097 1772 3097 
Q 1472 3097 1187 3025 
Q 903 2953 641 2809 
L 641 3341 
Q 956 3463 1253 3523 
Q 1550 3584 1831 3584 
Q 2591 3584 2966 3190 
Q 3341 2797 3341 1997 
z
M 2291 5119 
L 2913 5119 
L 1894 3944 
L 1416 3944 
L 2291 5119 
z
" transform="scale(0.015625)"/>
     </defs>
     <use xlink:href="#DejaVuSans-54"/>
     <use xlink:href="#DejaVuSans-6f" x="44.083984"/>
     <use xlink:href="#DejaVuSans-70" x="105.265625"/>
     <use xlink:href="#DejaVuSans-20" x="168.742188"/>
     <use xlink:href="#DejaVuSans-31" x="200.529297"/>
     <use xlink:href="#DejaVuSans-30" x="264.152344"/>
     <use xlink:href="#DejaVuSans-20" x="327.775391"/>
     <use xlink:href="#DejaVuSans-74" x="359.5625"/>
     <use xlink:href="#DejaVuSans-68" x="398.771484"/>
     <use xlink:href="#DejaVuSans-1ec3" x="462.150391"/>
     <use xlink:href="#DejaVuSans-20" x="523.673828"/>
     <use xlink:href="#DejaVuSans-6c" x="555.460938"/>
     <use xlink:href="#DejaVuSans-6f" x="583.244141"/>
     <use xlink:href="#DejaVuSans-1ea1" x="644.425781"/>
     <use xlink:href="#DejaVuSans-69" x="705.705078"/>
     <use xlink:href="#DejaVuSans-20" x="733.488281"/>
     <use xlink:href="#DejaVuSans-70" x="765.275391"/>
     <use xlink:href="#DejaVuSans-68" x="828.751953"/>
     <use xlink:href="#DejaVuSans-1ed5" x="892.130859"/>
     <use xlink:href="#DejaVuSans-20" x="953.3125"/>
     <use xlink:href="#DejaVuSans-62" x="985.099609"/>
     <use xlink:href="#DejaVuSans-69" x="1048.576172"/>
     <use xlink:href="#DejaVuSans-1ebf" x="1076.359375"/>
     <use xlink:href="#DejaVuSans-6e" x="1137.882812"/>
     <use xlink:href="#DejaVuSans-20" x="1201.261719"/>
     <use xlink:href="#DejaVuSans-6e" x="1233.048828"/>
     <use xlink:href="#DejaVuSans-68" x="1296.427734"/>
     <use xlink:href="#DejaVuSans-1ea5" x="1359.806641"/>
     <use xlink:href="#DejaVuSans-74" x="1421.085938"/>
     <use xlink:href="#DejaVuSans-20" x="1460.294922"/>
     <use xlink:href="#DejaVuSans-74" x="1492.082031"/>
     <use xlink:href="#DejaVuSans-68" x="1531.291016"/>
     <use xlink:href="#DejaVuSans-65" x="1594.669922"/>
     <use xlink:href="#DejaVuSans-6f" x="1656.193359"/>
     <use xlink:href="#DejaVuSans-20" x="1717.375"/>
     <use xlink:href="#DejaVuSans-73" x="1749.162109"/>
     <use xlink:href="#DejaVuSans-1ed1" x="1801.261719"/>
     <use xlink:href="#DejaVuSans-20" x="1862.443359"/>
     <use xlink:href="#DejaVuSans-6c" x="1894.230469"/>
     <use xlink:href="#DejaVuSans-1b0" x="1922.013672"/>
     <use xlink:href="#DejaVuSans-1ee3" x="1985.392578"/>
     <use xlink:href="#DejaVuSans-6e" x="2046.574219"/>
     <use xlink:href="#DejaVuSans-67" x="2109.953125"/>
     <use xlink:href="#DejaVuSans-20" x="2173.429688"/>
     <use xlink:href="#DejaVuSans-62" x="2205.216797"/>
     <use xlink:href="#DejaVuSans-e0" x="2268.693359"/>
     <use xlink:href="#DejaVuSans-69" x="2329.972656"/>
     <use xlink:href="#DejaVuSans-20" x="2357.755859"/>
     <use xlink:href="#DejaVuSans-68" x="2389.542969"/>
     <use xlink:href="#DejaVuSans-e1" x="2452.921875"/>
     <use xlink:href="#DejaVuSans-74" x="2514.201172"/>
    </g>
   </g>
  </g>
 </g>
 <defs>
  <clipPath id="p9b1f125395">
   <rect x="36" y="36" width="648" height="648"/>
  </clipPath>
 </defs>
</svg>
